<svg xmlns="http://www.w3.org/2000/svg" xmlns:xlink="http://www.w3.org/1999/xlink" width="500" zoomAndPan="magnify" viewBox="0 0 375 374.999991" height="500" preserveAspectRatio="xMidYMid meet" version="1.0"><defs><g/><clipPath id="c3de8cd071"><path d="M 105 185 L 123 185 L 123 204 L 105 204 Z M 105 185 " clip-rule="nonzero"/></clipPath><clipPath id="8622931fc5"><path d="M 115.761719 205.449219 L 102.992188 189.960938 L 111.746094 182.742188 L 124.515625 198.230469 Z M 115.761719 205.449219 " clip-rule="nonzero"/></clipPath><clipPath id="37d917688e"><path d="M 112.152344 201.070312 L 106.601562 194.339844 C 105.648438 193.175781 105.191406 191.683594 105.335938 190.1875 C 105.476562 188.691406 106.210938 187.3125 107.371094 186.355469 C 108.53125 185.398438 110.027344 184.941406 111.523438 185.085938 C 113.019531 185.230469 114.398438 185.960938 115.355469 187.121094 L 120.90625 193.855469 C 121.863281 195.015625 122.320312 196.507812 122.175781 198.007812 C 122.03125 199.503906 121.296875 200.882812 120.136719 201.839844 C 118.976562 202.796875 117.484375 203.253906 115.988281 203.109375 C 114.488281 202.964844 113.109375 202.230469 112.152344 201.070312 Z M 112.152344 201.070312 " clip-rule="nonzero"/></clipPath><clipPath id="c625155625"><path d="M 103 165 L 137 165 L 137 195 L 103 195 Z M 103 165 " clip-rule="nonzero"/></clipPath><clipPath id="4667a5926d"><path d="M 101.507812 188.15625 L 131.902344 163.097656 L 139.117188 171.851562 L 108.722656 196.90625 Z M 101.507812 188.15625 " clip-rule="nonzero"/></clipPath><clipPath id="d8a3ba74bb"><path d="M 105.882812 184.546875 L 127.523438 166.707031 C 128.683594 165.75 130.179688 165.292969 131.675781 165.4375 C 133.171875 165.582031 134.550781 166.3125 135.507812 167.476562 C 136.464844 168.636719 136.921875 170.128906 136.777344 171.625 C 136.632812 173.125 135.902344 174.503906 134.738281 175.460938 L 113.097656 193.300781 C 111.9375 194.257812 110.445312 194.710938 108.949219 194.570312 C 107.449219 194.425781 106.070312 193.691406 105.113281 192.53125 C 104.15625 191.371094 103.703125 189.875 103.84375 188.378906 C 103.988281 186.882812 104.722656 185.503906 105.882812 184.546875 Z M 105.882812 184.546875 " clip-rule="nonzero"/></clipPath><clipPath id="a09a289b32"><path d="M 112 169 L 153 169 L 153 205 L 112 205 Z M 112 169 " clip-rule="nonzero"/></clipPath><clipPath id="1eaa44df60"><path d="M 110.070312 198.542969 L 147.679688 167.539062 L 154.894531 176.292969 L 117.285156 207.292969 Z M 110.070312 198.542969 " clip-rule="nonzero"/></clipPath><clipPath id="1be23313d1"><path d="M 114.445312 194.933594 L 143.300781 171.148438 C 144.460938 170.191406 145.957031 169.734375 147.453125 169.878906 C 148.949219 170.023438 150.328125 170.753906 151.285156 171.917969 C 152.242188 173.078125 152.699219 174.570312 152.554688 176.066406 C 152.410156 177.566406 151.675781 178.941406 150.515625 179.898438 L 121.660156 203.6875 C 120.5 204.644531 119.007812 205.101562 117.511719 204.957031 C 116.011719 204.8125 114.636719 204.078125 113.679688 202.917969 C 112.722656 201.757812 112.265625 200.265625 112.410156 198.765625 C 112.554688 197.269531 113.285156 195.890625 114.445312 194.933594 Z M 114.445312 194.933594 " clip-rule="nonzero"/></clipPath><clipPath id="fb031d8b7e"><path d="M 126 180 L 162 180 L 162 211 L 126 211 Z M 126 180 " clip-rule="nonzero"/></clipPath><clipPath id="b0c13e9d33"><path d="M 124.683594 204.21875 L 156.378906 178.089844 L 163.59375 186.84375 L 131.898438 212.96875 Z M 124.683594 204.21875 " clip-rule="nonzero"/></clipPath><clipPath id="fa8ce6742c"><path d="M 129.058594 200.609375 L 152 181.699219 C 153.160156 180.742188 154.652344 180.285156 156.152344 180.429688 C 157.648438 180.574219 159.027344 181.304688 159.984375 182.46875 C 160.941406 183.628906 161.398438 185.121094 161.253906 186.617188 C 161.109375 188.117188 160.375 189.496094 159.214844 190.453125 L 136.273438 209.363281 C 135.113281 210.320312 133.621094 210.773438 132.125 210.632812 C 130.625 210.488281 129.25 209.753906 128.292969 208.59375 C 127.335938 207.433594 126.878906 205.9375 127.023438 204.441406 C 127.167969 202.945312 127.898438 201.566406 129.058594 200.609375 Z M 129.058594 200.609375 " clip-rule="nonzero"/></clipPath><clipPath id="64e3bac4bf"><path d="M 142 171 L 160 171 L 160 190 L 142 190 Z M 142 171 " clip-rule="nonzero"/></clipPath><clipPath id="3214e5a431"><path d="M 153.269531 192.15625 L 140.503906 176.667969 L 149.253906 169.453125 L 162.023438 184.941406 Z M 153.269531 192.15625 " clip-rule="nonzero"/></clipPath><clipPath id="3be3f09829"><path d="M 149.664062 187.78125 L 144.113281 181.050781 C 143.15625 179.886719 142.699219 178.394531 142.84375 176.898438 C 142.988281 175.398438 143.71875 174.023438 144.878906 173.066406 C 146.042969 172.109375 147.535156 171.652344 149.03125 171.796875 C 150.527344 171.941406 151.90625 172.671875 152.863281 173.832031 L 158.414062 180.566406 C 159.371094 181.726562 159.828125 183.21875 159.683594 184.71875 C 159.539062 186.214844 158.808594 187.59375 157.644531 188.550781 C 156.484375 189.507812 154.992188 189.964844 153.496094 189.820312 C 151.996094 189.675781 150.617188 188.941406 149.664062 187.78125 Z M 149.664062 187.78125 " clip-rule="nonzero"/></clipPath></defs><g clip-path="url(#c3de8cd071)"><g clip-path="url(#8622931fc5)"><g clip-path="url(#37d917688e)"><path fill="#ffffff" d="M 115.761719 205.449219 L 102.992188 189.960938 L 111.746094 182.742188 L 124.515625 198.230469 Z M 115.761719 205.449219 " fill-opacity="1" fill-rule="nonzero"/></g></g></g><g clip-path="url(#c625155625)"><g clip-path="url(#4667a5926d)"><g clip-path="url(#d8a3ba74bb)"><path fill="#ffffff" d="M 101.507812 188.15625 L 131.902344 163.097656 L 139.117188 171.851562 L 108.722656 196.90625 Z M 101.507812 188.15625 " fill-opacity="1" fill-rule="nonzero"/></g></g></g><g clip-path="url(#a09a289b32)"><g clip-path="url(#1eaa44df60)"><g clip-path="url(#1be23313d1)"><path fill="#ffffff" d="M 110.070312 198.542969 L 147.679688 167.539062 L 154.894531 176.292969 L 117.285156 207.292969 Z M 110.070312 198.542969 " fill-opacity="1" fill-rule="nonzero"/></g></g></g><g clip-path="url(#fb031d8b7e)"><g clip-path="url(#b0c13e9d33)"><g clip-path="url(#fa8ce6742c)"><path fill="#ffffff" d="M 124.683594 204.21875 L 156.378906 178.089844 L 163.59375 186.84375 L 131.898438 212.96875 Z M 124.683594 204.21875 " fill-opacity="1" fill-rule="nonzero"/></g></g></g><g clip-path="url(#64e3bac4bf)"><g clip-path="url(#3214e5a431)"><g clip-path="url(#3be3f09829)"><path fill="#ffffff" d="M 153.269531 192.15625 L 140.503906 176.667969 L 149.253906 169.453125 L 162.023438 184.941406 Z M 153.269531 192.15625 " fill-opacity="1" fill-rule="nonzero"/></g></g></g><path stroke-linecap="round" transform="matrix(0.167359, -0.137964, 0.137964, 0.167359, 126.096968, 200.150495)" fill="none" stroke-linejoin="miter" d="M 5.006778 5.002055 L 110.057595 5.00845 " stroke="#ffffff" stroke-width="10" stroke-opacity="1" stroke-miterlimit="4"/><path stroke-linecap="round" transform="matrix(0.167359, -0.137964, 0.137964, 0.167359, 126.096968, 200.150495)" fill-opacity="1" fill="#ffffff" fill-rule="nonzero" stroke-linejoin="round" d="M 115.060115 -10.006956 L 135.056612 5.006968 L 115.058288 20.007563 Z M 115.060115 -10.006956 " stroke="#ffffff" stroke-width="10" stroke-opacity="1" stroke-miterlimit="4"/><path stroke-linecap="round" transform="matrix(0.167359, -0.137964, 0.137964, 0.167359, 115.775841, 190.746549)" fill="none" stroke-linejoin="miter" d="M 6.008732 6.000986 L 50.096595 6.004081 " stroke="#ffffff" stroke-width="12" stroke-opacity="1" stroke-miterlimit="4"/><path stroke-linecap="round" transform="matrix(0.167359, -0.137964, 0.137964, 0.167359, 115.775841, 190.746549)" fill-opacity="1" fill="#ffffff" fill-rule="nonzero" stroke-linejoin="round" d="M 56.090942 -11.998218 L 80.097217 5.994452 L 56.102497 24.002529 Z M 56.090942 -11.998218 " stroke="#ffffff" stroke-width="12" stroke-opacity="1" stroke-miterlimit="4"/><g fill="#ffffff" fill-opacity="1"><g transform="translate(163.589027, 193.727435)"><g><path d="M 8.921875 0.28125 C 7.523438 0.28125 6.28125 0.109375 5.1875 -0.234375 C 4.101562 -0.578125 3.195312 -1.023438 2.46875 -1.578125 C 1.75 -2.140625 1.195312 -2.753906 0.8125 -3.421875 L 3 -6.09375 L 3.34375 -6.09375 C 3.945312 -5.195312 4.710938 -4.484375 5.640625 -3.953125 C 6.578125 -3.421875 7.671875 -3.15625 8.921875 -3.15625 C 9.984375 -3.15625 10.785156 -3.378906 11.328125 -3.828125 C 11.867188 -4.273438 12.140625 -4.894531 12.140625 -5.6875 C 12.140625 -6.164062 12.050781 -6.5625 11.875 -6.875 C 11.695312 -7.195312 11.40625 -7.472656 11 -7.703125 C 10.601562 -7.929688 10.0625 -8.128906 9.375 -8.296875 L 6.78125 -8.890625 C 4.976562 -9.304688 3.632812 -9.992188 2.75 -10.953125 C 1.863281 -11.910156 1.421875 -13.15625 1.421875 -14.6875 C 1.421875 -15.820312 1.703125 -16.820312 2.265625 -17.6875 C 2.835938 -18.550781 3.664062 -19.21875 4.75 -19.6875 C 5.84375 -20.164062 7.144531 -20.40625 8.65625 -20.40625 C 10.207031 -20.40625 11.535156 -20.203125 12.640625 -19.796875 C 13.742188 -19.390625 14.675781 -18.765625 15.4375 -17.921875 L 13.46875 -15.21875 L 13.125 -15.21875 C 12.5625 -15.8125 11.910156 -16.257812 11.171875 -16.5625 C 10.441406 -16.863281 9.601562 -17.015625 8.65625 -17.015625 C 7.5625 -17.015625 6.726562 -16.820312 6.15625 -16.4375 C 5.59375 -16.050781 5.3125 -15.519531 5.3125 -14.84375 C 5.3125 -14.207031 5.507812 -13.703125 5.90625 -13.328125 C 6.3125 -12.953125 7.003906 -12.65625 7.984375 -12.4375 L 10.625 -11.890625 C 12.582031 -11.472656 14 -10.769531 14.875 -9.78125 C 15.757812 -8.800781 16.203125 -7.519531 16.203125 -5.9375 C 16.203125 -4.675781 15.929688 -3.578125 15.390625 -2.640625 C 14.847656 -1.710938 14.03125 -0.992188 12.9375 -0.484375 C 11.84375 0.0234375 10.503906 0.28125 8.921875 0.28125 Z M 8.921875 0.28125 "/></g></g></g><g fill="#ffffff" fill-opacity="1"><g transform="translate(180.873522, 193.727435)"><g><path d="M 8.84375 0.28125 C 7.375 0.28125 6.078125 -0.0195312 4.953125 -0.625 C 3.828125 -1.238281 2.945312 -2.132812 2.3125 -3.3125 C 1.675781 -4.5 1.359375 -5.921875 1.359375 -7.578125 C 1.359375 -9.253906 1.675781 -10.679688 2.3125 -11.859375 C 2.945312 -13.046875 3.820312 -13.941406 4.9375 -14.546875 C 6.0625 -15.160156 7.34375 -15.46875 8.78125 -15.46875 C 11.976562 -15.46875 14.03125 -14.304688 14.9375 -11.984375 L 12.3125 -10.109375 L 12.03125 -10.109375 C 11.71875 -10.828125 11.3125 -11.359375 10.8125 -11.703125 C 10.3125 -12.054688 9.632812 -12.234375 8.78125 -12.234375 C 7.675781 -12.234375 6.816406 -11.851562 6.203125 -11.09375 C 5.585938 -10.332031 5.28125 -9.160156 5.28125 -7.578125 C 5.28125 -6.023438 5.59375 -4.863281 6.21875 -4.09375 C 6.84375 -3.332031 7.71875 -2.953125 8.84375 -2.953125 C 9.675781 -2.953125 10.378906 -3.171875 10.953125 -3.609375 C 11.523438 -4.054688 11.9375 -4.695312 12.1875 -5.53125 L 12.46875 -5.5625 L 15.1875 -4.078125 C 14.800781 -2.785156 14.085938 -1.734375 13.046875 -0.921875 C 12.003906 -0.117188 10.601562 0.28125 8.84375 0.28125 Z M 8.84375 0.28125 "/></g></g></g><g fill="#ffffff" fill-opacity="1"><g transform="translate(196.520397, 193.727435)"><g><path d="M 5.921875 0.28125 C 4.941406 0.28125 4.09375 0.101562 3.375 -0.25 C 2.664062 -0.601562 2.117188 -1.125 1.734375 -1.8125 C 1.347656 -2.507812 1.15625 -3.347656 1.15625 -4.328125 C 1.15625 -5.222656 1.347656 -5.972656 1.734375 -6.578125 C 2.117188 -7.191406 2.710938 -7.691406 3.515625 -8.078125 C 4.328125 -8.472656 5.382812 -8.773438 6.6875 -8.984375 C 7.59375 -9.128906 8.28125 -9.289062 8.75 -9.46875 C 9.226562 -9.644531 9.550781 -9.84375 9.71875 -10.0625 C 9.882812 -10.28125 9.96875 -10.5625 9.96875 -10.90625 C 9.96875 -11.382812 9.796875 -11.753906 9.453125 -12.015625 C 9.117188 -12.273438 8.554688 -12.40625 7.765625 -12.40625 C 6.921875 -12.40625 6.117188 -12.210938 5.359375 -11.828125 C 4.597656 -11.453125 3.9375 -10.957031 3.375 -10.34375 L 3.09375 -10.34375 L 1.5 -12.765625 C 2.269531 -13.609375 3.207031 -14.269531 4.3125 -14.75 C 5.425781 -15.226562 6.640625 -15.46875 7.953125 -15.46875 C 9.960938 -15.46875 11.414062 -15.039062 12.3125 -14.1875 C 13.21875 -13.332031 13.671875 -12.125 13.671875 -10.5625 L 13.671875 -3.96875 C 13.671875 -3.289062 13.96875 -2.953125 14.5625 -2.953125 C 14.789062 -2.953125 15.015625 -2.988281 15.234375 -3.0625 L 15.421875 -3.015625 L 15.703125 -0.359375 C 15.492188 -0.222656 15.203125 -0.109375 14.828125 -0.015625 C 14.453125 0.0664062 14.035156 0.109375 13.578125 0.109375 C 12.671875 0.109375 11.960938 -0.0625 11.453125 -0.40625 C 10.941406 -0.757812 10.578125 -1.304688 10.359375 -2.046875 L 10.078125 -2.078125 C 9.328125 -0.503906 7.941406 0.28125 5.921875 0.28125 Z M 7.125 -2.5625 C 8.007812 -2.5625 8.710938 -2.851562 9.234375 -3.4375 C 9.765625 -4.03125 10.03125 -4.859375 10.03125 -5.921875 L 10.03125 -7.453125 L 9.765625 -7.515625 C 9.535156 -7.328125 9.234375 -7.171875 8.859375 -7.046875 C 8.492188 -6.929688 7.960938 -6.8125 7.265625 -6.6875 C 6.441406 -6.550781 5.847656 -6.316406 5.484375 -5.984375 C 5.117188 -5.648438 4.9375 -5.175781 4.9375 -4.5625 C 4.9375 -3.90625 5.128906 -3.40625 5.515625 -3.0625 C 5.898438 -2.726562 6.4375 -2.5625 7.125 -2.5625 Z M 7.125 -2.5625 "/></g></g></g><g fill="#ffffff" fill-opacity="1"><g transform="translate(212.525073, 193.727435)"><g><path d="M 6.296875 0.28125 C 4.929688 0.28125 3.890625 -0.0820312 3.171875 -0.8125 C 2.453125 -1.550781 2.09375 -2.675781 2.09375 -4.1875 L 2.09375 -21.28125 L 5.90625 -21.28125 L 5.90625 -4.328125 C 5.90625 -3.410156 6.289062 -2.953125 7.0625 -2.953125 C 7.28125 -2.953125 7.515625 -2.988281 7.765625 -3.0625 L 7.953125 -3 L 8.296875 -0.0625 C 8.085938 0.0390625 7.804688 0.125 7.453125 0.1875 C 7.109375 0.25 6.722656 0.28125 6.296875 0.28125 Z M 6.296875 0.28125 "/></g></g></g><g fill="#ffffff" fill-opacity="1"><g transform="translate(221.24989, 193.727435)"><g><path d="M 15 -6.734375 L 5.25 -6.734375 C 5.351562 -5.410156 5.722656 -4.445312 6.359375 -3.84375 C 7.003906 -3.25 7.882812 -2.953125 9 -2.953125 C 9.875 -2.953125 10.582031 -3.113281 11.125 -3.4375 C 11.664062 -3.757812 12.097656 -4.25 12.421875 -4.90625 L 12.71875 -4.90625 L 15.25 -3.296875 C 14.75 -2.222656 14 -1.359375 13 -0.703125 C 12 -0.046875 10.664062 0.28125 9 0.28125 C 7.425781 0.28125 6.066406 -0.015625 4.921875 -0.609375 C 3.785156 -1.203125 2.90625 -2.085938 2.28125 -3.265625 C 1.664062 -4.441406 1.359375 -5.878906 1.359375 -7.578125 C 1.359375 -9.304688 1.679688 -10.757812 2.328125 -11.9375 C 2.984375 -13.125 3.863281 -14.007812 4.96875 -14.59375 C 6.082031 -15.175781 7.332031 -15.46875 8.71875 -15.46875 C 10.875 -15.46875 12.519531 -14.898438 13.65625 -13.765625 C 14.800781 -12.628906 15.375 -10.957031 15.375 -8.75 C 15.375 -7.957031 15.347656 -7.335938 15.296875 -6.890625 Z M 11.71875 -9.1875 C 11.6875 -10.34375 11.421875 -11.1875 10.921875 -11.71875 C 10.421875 -12.25 9.6875 -12.515625 8.71875 -12.515625 C 6.789062 -12.515625 5.660156 -11.40625 5.328125 -9.1875 Z M 11.71875 -9.1875 "/></g></g></g><g fill="#ffffff" fill-opacity="1"><g transform="translate(237.749981, 193.727435)"><g><path d="M 6.953125 0.28125 C 5.242188 0.28125 3.984375 -0.179688 3.171875 -1.109375 C 2.359375 -2.035156 1.953125 -3.375 1.953125 -5.125 L 1.953125 -15.1875 L 5.765625 -15.1875 L 5.765625 -5.609375 C 5.765625 -4.679688 5.960938 -4.003906 6.359375 -3.578125 C 6.765625 -3.148438 7.382812 -2.9375 8.21875 -2.9375 C 9.269531 -2.9375 10.085938 -3.28125 10.671875 -3.96875 C 11.265625 -4.664062 11.5625 -5.753906 11.5625 -7.234375 L 11.5625 -15.1875 L 15.375 -15.1875 L 15.375 0 L 11.71875 0 L 11.71875 -2.234375 L 11.421875 -2.296875 C 10.929688 -1.421875 10.335938 -0.769531 9.640625 -0.34375 C 8.941406 0.0703125 8.046875 0.28125 6.953125 0.28125 Z M 6.953125 0.28125 "/></g></g></g><g fill="#ffffff" fill-opacity="1"><g transform="translate(255.309707, 193.727435)"><g><path d="M 2.1875 6.15625 L 2.1875 -15.1875 L 6 -15.1875 L 6 -13.203125 L 6.296875 -13.140625 C 6.742188 -13.910156 7.34375 -14.488281 8.09375 -14.875 C 8.84375 -15.269531 9.722656 -15.46875 10.734375 -15.46875 C 11.953125 -15.46875 13.019531 -15.175781 13.9375 -14.59375 C 14.851562 -14.019531 15.5625 -13.144531 16.0625 -11.96875 C 16.570312 -10.789062 16.828125 -9.328125 16.828125 -7.578125 C 16.828125 -5.847656 16.554688 -4.394531 16.015625 -3.21875 C 15.484375 -2.039062 14.738281 -1.160156 13.78125 -0.578125 C 12.832031 -0.00390625 11.734375 0.28125 10.484375 0.28125 C 9.535156 0.28125 8.71875 0.125 8.03125 -0.1875 C 7.34375 -0.5 6.765625 -0.992188 6.296875 -1.671875 L 6 -1.609375 L 6 6.15625 Z M 9.421875 -2.953125 C 10.566406 -2.953125 11.429688 -3.320312 12.015625 -4.0625 C 12.597656 -4.800781 12.890625 -5.972656 12.890625 -7.578125 C 12.890625 -9.191406 12.597656 -10.367188 12.015625 -11.109375 C 11.429688 -11.859375 10.566406 -12.234375 9.421875 -12.234375 C 8.359375 -12.234375 7.515625 -11.847656 6.890625 -11.078125 C 6.265625 -10.304688 5.953125 -9.140625 5.953125 -7.578125 C 5.953125 -6.023438 6.265625 -4.863281 6.890625 -4.09375 C 7.515625 -3.332031 8.359375 -2.953125 9.421875 -2.953125 Z M 9.421875 -2.953125 "/></g></g></g><g fill="#ffffff" fill-opacity="1"><g transform="translate(163.589027, 205.935605)"><g><path d="M 5.765625 -7.546875 L 5.765625 -6.296875 L 2.46875 -6.296875 L 2.46875 -4.296875 L 5.453125 -4.296875 L 5.453125 -3.0625 L 2.46875 -3.0625 L 2.46875 0 L 0.984375 0 L 0.984375 -7.546875 Z M 5.765625 -7.546875 "/></g></g><g transform="translate(169.689425, 205.935605)"><g><path d="M 3.3125 0.109375 C 2.75 0.109375 2.253906 -0.00390625 1.828125 -0.234375 C 1.410156 -0.460938 1.085938 -0.796875 0.859375 -1.234375 C 0.628906 -1.679688 0.515625 -2.21875 0.515625 -2.84375 C 0.515625 -3.46875 0.628906 -4 0.859375 -4.4375 C 1.085938 -4.882812 1.410156 -5.222656 1.828125 -5.453125 C 2.253906 -5.679688 2.75 -5.796875 3.3125 -5.796875 C 3.863281 -5.796875 4.347656 -5.679688 4.765625 -5.453125 C 5.191406 -5.222656 5.519531 -4.882812 5.75 -4.4375 C 5.988281 -4 6.109375 -3.46875 6.109375 -2.84375 C 6.109375 -2.21875 5.988281 -1.679688 5.75 -1.234375 C 5.519531 -0.796875 5.191406 -0.460938 4.765625 -0.234375 C 4.347656 -0.00390625 3.863281 0.109375 3.3125 0.109375 Z M 3.3125 -1.109375 C 4.1875 -1.109375 4.625 -1.6875 4.625 -2.84375 C 4.625 -3.445312 4.507812 -3.882812 4.28125 -4.15625 C 4.0625 -4.4375 3.738281 -4.578125 3.3125 -4.578125 C 2.425781 -4.578125 1.984375 -4 1.984375 -2.84375 C 1.984375 -1.6875 2.425781 -1.109375 3.3125 -1.109375 Z M 3.3125 -1.109375 "/></g></g><g transform="translate(176.305932, 205.935605)"><g><path d="M 2.609375 0.109375 C 1.960938 0.109375 1.488281 -0.0625 1.1875 -0.40625 C 0.882812 -0.757812 0.734375 -1.265625 0.734375 -1.921875 L 0.734375 -5.6875 L 2.15625 -5.6875 L 2.15625 -2.09375 C 2.15625 -1.75 2.226562 -1.492188 2.375 -1.328125 C 2.53125 -1.171875 2.765625 -1.09375 3.078125 -1.09375 C 3.472656 -1.09375 3.78125 -1.222656 4 -1.484375 C 4.21875 -1.742188 4.328125 -2.15625 4.328125 -2.71875 L 4.328125 -5.6875 L 5.765625 -5.6875 L 5.765625 0 L 4.390625 0 L 4.390625 -0.828125 L 4.28125 -0.859375 C 4.09375 -0.535156 3.867188 -0.289062 3.609375 -0.125 C 3.347656 0.03125 3.015625 0.109375 2.609375 0.109375 Z M 2.609375 0.109375 "/></g></g><g transform="translate(182.891472, 205.935605)"><g><path d="M 0.8125 0 L 0.8125 -5.6875 L 2.1875 -5.6875 L 2.1875 -4.859375 L 2.296875 -4.828125 C 2.648438 -5.472656 3.222656 -5.796875 4.015625 -5.796875 C 4.679688 -5.796875 5.164062 -5.613281 5.46875 -5.25 C 5.78125 -4.894531 5.9375 -4.378906 5.9375 -3.703125 L 5.9375 0 L 4.5 0 L 4.5 -3.515625 C 4.5 -3.898438 4.421875 -4.175781 4.265625 -4.34375 C 4.117188 -4.507812 3.878906 -4.59375 3.546875 -4.59375 C 3.140625 -4.59375 2.820312 -4.457031 2.59375 -4.1875 C 2.363281 -3.925781 2.25 -3.507812 2.25 -2.9375 L 2.25 0 Z M 0.8125 0 "/></g></g><g transform="translate(189.55959, 205.935605)"><g><path d="M 2.8125 0.109375 C 2.363281 0.109375 1.960938 0 1.609375 -0.21875 C 1.265625 -0.4375 0.992188 -0.765625 0.796875 -1.203125 C 0.609375 -1.648438 0.515625 -2.195312 0.515625 -2.84375 C 0.515625 -3.488281 0.613281 -4.03125 0.8125 -4.46875 C 1.007812 -4.914062 1.285156 -5.25 1.640625 -5.46875 C 2.003906 -5.6875 2.421875 -5.796875 2.890625 -5.796875 C 3.242188 -5.796875 3.546875 -5.734375 3.796875 -5.609375 C 4.054688 -5.492188 4.28125 -5.304688 4.46875 -5.046875 L 4.5625 -5.0625 L 4.5625 -7.96875 L 6 -7.96875 L 6 0 L 4.5625 0 L 4.5625 -0.734375 L 4.46875 -0.765625 C 4.300781 -0.492188 4.082031 -0.28125 3.8125 -0.125 C 3.539062 0.03125 3.207031 0.109375 2.8125 0.109375 Z M 3.28125 -1.109375 C 3.675781 -1.109375 3.988281 -1.25 4.21875 -1.53125 C 4.457031 -1.820312 4.578125 -2.257812 4.578125 -2.84375 C 4.578125 -3.425781 4.457031 -3.859375 4.21875 -4.140625 C 3.988281 -4.429688 3.675781 -4.578125 3.28125 -4.578125 C 2.851562 -4.578125 2.53125 -4.4375 2.3125 -4.15625 C 2.09375 -3.882812 1.984375 -3.445312 1.984375 -2.84375 C 1.984375 -2.238281 2.09375 -1.796875 2.3125 -1.515625 C 2.53125 -1.242188 2.851562 -1.109375 3.28125 -1.109375 Z M 3.28125 -1.109375 "/></g></g><g transform="translate(196.38254, 205.935605)"><g><path d="M 2.21875 0.109375 C 1.851562 0.109375 1.535156 0.0390625 1.265625 -0.09375 C 0.992188 -0.226562 0.785156 -0.425781 0.640625 -0.6875 C 0.503906 -0.945312 0.4375 -1.257812 0.4375 -1.625 C 0.4375 -1.957031 0.503906 -2.238281 0.640625 -2.46875 C 0.785156 -2.695312 1.007812 -2.882812 1.3125 -3.03125 C 1.625 -3.175781 2.019531 -3.289062 2.5 -3.375 C 2.84375 -3.425781 3.101562 -3.484375 3.28125 -3.546875 C 3.457031 -3.609375 3.578125 -3.679688 3.640625 -3.765625 C 3.703125 -3.847656 3.734375 -3.953125 3.734375 -4.078125 C 3.734375 -4.265625 3.671875 -4.40625 3.546875 -4.5 C 3.421875 -4.59375 3.207031 -4.640625 2.90625 -4.640625 C 2.59375 -4.640625 2.289062 -4.566406 2 -4.421875 C 1.71875 -4.285156 1.472656 -4.101562 1.265625 -3.875 L 1.15625 -3.875 L 0.5625 -4.78125 C 0.851562 -5.101562 1.207031 -5.351562 1.625 -5.53125 C 2.039062 -5.707031 2.492188 -5.796875 2.984375 -5.796875 C 3.734375 -5.796875 4.273438 -5.632812 4.609375 -5.3125 C 4.953125 -5 5.125 -4.546875 5.125 -3.953125 L 5.125 -1.484375 C 5.125 -1.234375 5.234375 -1.109375 5.453125 -1.109375 C 5.535156 -1.109375 5.617188 -1.125 5.703125 -1.15625 L 5.78125 -1.125 L 5.890625 -0.140625 C 5.804688 -0.0859375 5.691406 -0.0390625 5.546875 0 C 5.410156 0.03125 5.257812 0.046875 5.09375 0.046875 C 4.75 0.046875 4.476562 -0.015625 4.28125 -0.140625 C 4.09375 -0.273438 3.960938 -0.484375 3.890625 -0.765625 L 3.78125 -0.78125 C 3.5 -0.1875 2.976562 0.109375 2.21875 0.109375 Z M 2.671875 -0.953125 C 3.003906 -0.953125 3.269531 -1.0625 3.46875 -1.28125 C 3.664062 -1.507812 3.765625 -1.820312 3.765625 -2.21875 L 3.765625 -2.796875 L 3.65625 -2.8125 C 3.570312 -2.75 3.457031 -2.691406 3.3125 -2.640625 C 3.175781 -2.597656 2.976562 -2.550781 2.71875 -2.5 C 2.414062 -2.445312 2.191406 -2.359375 2.046875 -2.234375 C 1.910156 -2.109375 1.84375 -1.929688 1.84375 -1.703125 C 1.84375 -1.460938 1.914062 -1.273438 2.0625 -1.140625 C 2.207031 -1.015625 2.410156 -0.953125 2.671875 -0.953125 Z M 2.671875 -0.953125 "/></g></g><g transform="translate(202.384878, 205.935605)"><g><path d="M 3.921875 -1.359375 L 4.296875 -0.296875 C 4.140625 -0.171875 3.941406 -0.0703125 3.703125 0 C 3.472656 0.0703125 3.210938 0.109375 2.921875 0.109375 C 2.304688 0.109375 1.835938 -0.0546875 1.515625 -0.390625 C 1.191406 -0.722656 1.03125 -1.210938 1.03125 -1.859375 L 1.03125 -4.5625 L 0.171875 -4.5625 L 0.171875 -5.6875 L 1.03125 -5.6875 L 1.03125 -6.796875 L 2.46875 -7.03125 L 2.46875 -5.6875 L 4.078125 -5.6875 L 4.078125 -4.5625 L 2.46875 -4.5625 L 2.46875 -1.953125 C 2.46875 -1.671875 2.523438 -1.46875 2.640625 -1.34375 C 2.753906 -1.21875 2.925781 -1.15625 3.15625 -1.15625 C 3.40625 -1.15625 3.625 -1.222656 3.8125 -1.359375 Z M 3.921875 -1.359375 "/></g></g><g transform="translate(206.807925, 205.935605)"><g><path d="M 1.53125 -6.375 C 1.269531 -6.375 1.054688 -6.453125 0.890625 -6.609375 C 0.734375 -6.765625 0.65625 -6.960938 0.65625 -7.203125 C 0.65625 -7.453125 0.734375 -7.65625 0.890625 -7.8125 C 1.054688 -7.96875 1.269531 -8.046875 1.53125 -8.046875 C 1.707031 -8.046875 1.859375 -8.007812 1.984375 -7.9375 C 2.117188 -7.863281 2.222656 -7.765625 2.296875 -7.640625 C 2.367188 -7.515625 2.40625 -7.367188 2.40625 -7.203125 C 2.40625 -7.046875 2.367188 -6.90625 2.296875 -6.78125 C 2.222656 -6.65625 2.117188 -6.554688 1.984375 -6.484375 C 1.859375 -6.410156 1.707031 -6.375 1.53125 -6.375 Z M 0.8125 0 L 0.8125 -5.6875 L 2.25 -5.6875 L 2.25 0 Z M 0.8125 0 "/></g></g><g transform="translate(209.873608, 205.935605)"><g><path d="M 3.3125 0.109375 C 2.75 0.109375 2.253906 -0.00390625 1.828125 -0.234375 C 1.410156 -0.460938 1.085938 -0.796875 0.859375 -1.234375 C 0.628906 -1.679688 0.515625 -2.21875 0.515625 -2.84375 C 0.515625 -3.46875 0.628906 -4 0.859375 -4.4375 C 1.085938 -4.882812 1.410156 -5.222656 1.828125 -5.453125 C 2.253906 -5.679688 2.75 -5.796875 3.3125 -5.796875 C 3.863281 -5.796875 4.347656 -5.679688 4.765625 -5.453125 C 5.191406 -5.222656 5.519531 -4.882812 5.75 -4.4375 C 5.988281 -4 6.109375 -3.46875 6.109375 -2.84375 C 6.109375 -2.21875 5.988281 -1.679688 5.75 -1.234375 C 5.519531 -0.796875 5.191406 -0.460938 4.765625 -0.234375 C 4.347656 -0.00390625 3.863281 0.109375 3.3125 0.109375 Z M 3.3125 -1.109375 C 4.1875 -1.109375 4.625 -1.6875 4.625 -2.84375 C 4.625 -3.445312 4.507812 -3.882812 4.28125 -4.15625 C 4.0625 -4.4375 3.738281 -4.578125 3.3125 -4.578125 C 2.425781 -4.578125 1.984375 -4 1.984375 -2.84375 C 1.984375 -1.6875 2.425781 -1.109375 3.3125 -1.109375 Z M 3.3125 -1.109375 "/></g></g><g transform="translate(216.490115, 205.935605)"><g><path d="M 0.8125 0 L 0.8125 -5.6875 L 2.1875 -5.6875 L 2.1875 -4.859375 L 2.296875 -4.828125 C 2.648438 -5.472656 3.222656 -5.796875 4.015625 -5.796875 C 4.679688 -5.796875 5.164062 -5.613281 5.46875 -5.25 C 5.78125 -4.894531 5.9375 -4.378906 5.9375 -3.703125 L 5.9375 0 L 4.5 0 L 4.5 -3.515625 C 4.5 -3.898438 4.421875 -4.175781 4.265625 -4.34375 C 4.117188 -4.507812 3.878906 -4.59375 3.546875 -4.59375 C 3.140625 -4.59375 2.820312 -4.457031 2.59375 -4.1875 C 2.363281 -3.925781 2.25 -3.507812 2.25 -2.9375 L 2.25 0 Z M 0.8125 0 "/></g></g></g></svg>