<svg xmlns="http://www.w3.org/2000/svg" xmlns:xlink="http://www.w3.org/1999/xlink" width="500" zoomAndPan="magnify" viewBox="0 0 375 374.999991" height="500" preserveAspectRatio="xMidYMid meet" version="1.0"><defs><g/><clipPath id="4f62d92552"><path d="M 91 143 L 154 143 L 154 210 L 91 210 Z M 91 143 " clip-rule="nonzero"/></clipPath><clipPath id="78444de811"><path d="M 129.449219 215.648438 L 85.300781 162.09375 L 115.566406 137.140625 L 159.714844 190.699219 Z M 129.449219 215.648438 " clip-rule="nonzero"/></clipPath><clipPath id="2774684371"><path d="M 119.910156 204.074219 L 94.847656 173.675781 C 92.320312 170.605469 91.109375 166.65625 91.492188 162.695312 C 91.875 158.738281 93.8125 155.089844 96.882812 152.558594 L 104 146.691406 C 107.070312 144.164062 111.019531 142.953125 114.976562 143.335938 C 118.9375 143.71875 122.585938 145.65625 125.113281 148.726562 L 150.175781 179.125 C 152.707031 182.195312 153.914062 186.144531 153.53125 190.101562 C 153.148438 194.0625 151.210938 197.710938 148.140625 200.238281 L 141.023438 206.109375 C 137.953125 208.636719 134.003906 209.84375 130.046875 209.464844 C 126.085938 209.082031 122.4375 207.144531 119.910156 204.074219 Z M 119.910156 204.074219 " clip-rule="nonzero"/></clipPath><clipPath id="979c390d3e"><path d="M 87 76 L 203 76 L 203 179 L 87 179 Z M 87 76 " clip-rule="nonzero"/></clipPath><clipPath id="305d414a4a"><path d="M 80.160156 155.851562 L 185.261719 69.207031 L 210.214844 99.472656 L 105.109375 186.117188 Z M 80.160156 155.851562 " clip-rule="nonzero"/></clipPath><clipPath id="8250487ce7"><path d="M 94.628906 143.925781 L 170.792969 81.136719 C 178.78125 74.550781 190.597656 75.6875 197.1875 83.679688 L 198.28125 85.007812 C 204.871094 93 203.730469 104.816406 195.742188 111.402344 L 119.578125 174.191406 C 111.585938 180.777344 99.769531 179.640625 93.183594 171.648438 L 92.085938 170.316406 C 85.5 162.328125 86.636719 150.511719 94.628906 143.925781 Z M 94.628906 143.925781 " clip-rule="nonzero"/></clipPath><clipPath id="e8dd6c1a9b"><path d="M 117 92 L 258 92 L 258 215 L 117 215 Z M 117 92 " clip-rule="nonzero"/></clipPath><clipPath id="9d21e0842d"><path d="M 109.769531 191.769531 L 239.820312 84.5625 L 264.769531 114.828125 L 134.722656 222.035156 Z M 109.769531 191.769531 " clip-rule="nonzero"/></clipPath><clipPath id="dbd729e0ea"><path d="M 124.238281 179.84375 L 225.347656 96.492188 C 233.335938 89.90625 245.15625 91.042969 251.742188 99.035156 L 252.839844 100.367188 C 259.425781 108.355469 258.289062 120.171875 250.296875 126.761719 L 149.1875 210.109375 C 141.199219 216.695312 129.382812 215.558594 122.792969 207.570312 L 121.699219 206.238281 C 115.109375 198.246094 116.25 186.429688 124.238281 179.84375 Z M 124.238281 179.84375 " clip-rule="nonzero"/></clipPath><clipPath id="7c3b55c930"><path d="M 167 128 L 288 128 L 288 235 L 167 235 Z M 167 128 " clip-rule="nonzero"/></clipPath><clipPath id="0e4608e104"><path d="M 160.300781 211.394531 L 269.898438 121.046875 L 294.847656 151.3125 L 185.253906 241.660156 Z M 160.300781 211.394531 " clip-rule="nonzero"/></clipPath><clipPath id="9b5679db20"><path d="M 174.769531 199.46875 L 255.425781 132.980469 C 263.414062 126.390625 275.230469 127.53125 281.820312 135.519531 L 282.914062 136.851562 C 289.503906 144.839844 288.363281 156.660156 280.375 163.246094 L 199.71875 229.734375 C 191.730469 236.320312 179.914062 235.183594 173.324219 227.191406 L 172.230469 225.863281 C 165.640625 217.871094 166.78125 206.054688 174.769531 199.46875 Z M 174.769531 199.46875 " clip-rule="nonzero"/></clipPath><clipPath id="10f90fdcd6"><path d="M 221 97 L 284 97 L 284 164 L 221 164 Z M 221 97 " clip-rule="nonzero"/></clipPath><clipPath id="a5ab0ee349"><path d="M 259.152344 169.695312 L 215 116.136719 L 245.265625 91.1875 L 289.417969 144.746094 Z M 259.152344 169.695312 " clip-rule="nonzero"/></clipPath><clipPath id="3548e9b9b1"><path d="M 249.609375 158.121094 L 224.550781 127.722656 C 222.019531 124.652344 220.8125 120.703125 221.195312 116.742188 C 221.574219 112.78125 223.511719 109.136719 226.582031 106.605469 L 233.699219 100.738281 C 236.769531 98.207031 240.71875 97 244.679688 97.382812 C 248.640625 97.761719 252.285156 99.703125 254.816406 102.773438 L 279.875 133.171875 C 282.40625 136.242188 283.613281 140.191406 283.234375 144.148438 C 282.851562 148.109375 280.914062 151.753906 277.84375 154.285156 L 270.726562 160.152344 C 267.65625 162.683594 263.707031 163.890625 259.746094 163.511719 C 255.785156 163.128906 252.140625 161.191406 249.609375 158.121094 Z M 249.609375 158.121094 " clip-rule="nonzero"/></clipPath></defs><g clip-path="url(#4f62d92552)"><g clip-path="url(#78444de811)"><g clip-path="url(#2774684371)"><path fill="#04045e" d="M 129.449219 215.648438 L 85.300781 162.09375 L 115.566406 137.140625 L 159.714844 190.699219 Z M 129.449219 215.648438 " fill-opacity="1" fill-rule="nonzero"/></g></g></g><g clip-path="url(#979c390d3e)"><g clip-path="url(#305d414a4a)"><g clip-path="url(#8250487ce7)"><path fill="#04045e" d="M 80.160156 155.851562 L 185.261719 69.207031 L 210.214844 99.472656 L 105.109375 186.117188 Z M 80.160156 155.851562 " fill-opacity="1" fill-rule="nonzero"/></g></g></g><g clip-path="url(#e8dd6c1a9b)"><g clip-path="url(#9d21e0842d)"><g clip-path="url(#dbd729e0ea)"><path fill="#04045e" d="M 109.769531 191.769531 L 239.820312 84.5625 L 264.769531 114.828125 L 134.722656 222.035156 Z M 109.769531 191.769531 " fill-opacity="1" fill-rule="nonzero"/></g></g></g><g clip-path="url(#7c3b55c930)"><g clip-path="url(#0e4608e104)"><g clip-path="url(#9b5679db20)"><path fill="#04045e" d="M 160.300781 211.394531 L 269.898438 121.046875 L 294.847656 151.3125 L 185.253906 241.660156 Z M 160.300781 211.394531 " fill-opacity="1" fill-rule="nonzero"/></g></g></g><g clip-path="url(#10f90fdcd6)"><g clip-path="url(#a5ab0ee349)"><g clip-path="url(#3548e9b9b1)"><path fill="#04045e" d="M 259.152344 169.695312 L 215 116.136719 L 245.265625 91.1875 L 289.417969 144.746094 Z M 259.152344 169.695312 " fill-opacity="1" fill-rule="nonzero"/></g></g></g><path stroke-linecap="round" transform="matrix(0.578711, -0.477068, 0.477068, 0.578711, 165.189968, 197.332458)" fill="none" stroke-linejoin="miter" d="M 5.000588 4.999054 L 110.055014 5.000637 " stroke="#ffffff" stroke-width="10" stroke-opacity="1" stroke-miterlimit="4"/><path stroke-linecap="round" transform="matrix(0.578711, -0.477068, 0.477068, 0.578711, 165.189968, 197.332458)" fill-opacity="1" fill="#ffffff" fill-rule="nonzero" stroke-linejoin="round" d="M 115.056128 -9.999147 L 135.058559 4.998396 L 115.058252 19.999242 Z M 115.056128 -9.999147 " stroke="#ffffff" stroke-width="10" stroke-opacity="1" stroke-miterlimit="4"/><path stroke-linecap="round" transform="matrix(0.578711, -0.477068, 0.477068, 0.578711, 129.500446, 164.814496)" fill="none" stroke-linejoin="miter" d="M 5.99963 6.002165 L 50.094264 5.997112 " stroke="#ffffff" stroke-width="12" stroke-opacity="1" stroke-miterlimit="4"/><path stroke-linecap="round" transform="matrix(0.578711, -0.477068, 0.477068, 0.578711, 129.500446, 164.814496)" fill-opacity="1" fill="#ffffff" fill-rule="nonzero" stroke-linejoin="round" d="M 56.094416 -11.999555 L 80.093359 6.00232 L 56.097106 23.999978 Z M 56.094416 -11.999555 " stroke="#ffffff" stroke-width="12" stroke-opacity="1" stroke-miterlimit="4"/><g fill="#04045e" fill-opacity="1"><g transform="translate(109.514647, 270.774724)"><g><path d="M 12.65625 0.40625 C 10.675781 0.40625 8.914062 0.160156 7.375 -0.328125 C 5.832031 -0.816406 4.546875 -1.457031 3.515625 -2.25 C 2.484375 -3.039062 1.695312 -3.910156 1.15625 -4.859375 L 4.265625 -8.65625 L 4.75 -8.65625 C 5.601562 -7.375 6.691406 -6.351562 8.015625 -5.59375 C 9.335938 -4.84375 10.882812 -4.46875 12.65625 -4.46875 C 14.164062 -4.46875 15.304688 -4.785156 16.078125 -5.421875 C 16.847656 -6.066406 17.234375 -6.945312 17.234375 -8.0625 C 17.234375 -8.738281 17.109375 -9.304688 16.859375 -9.765625 C 16.609375 -10.222656 16.195312 -10.613281 15.625 -10.9375 C 15.050781 -11.257812 14.273438 -11.539062 13.296875 -11.78125 L 9.625 -12.625 C 7.0625 -13.207031 5.148438 -14.175781 3.890625 -15.53125 C 2.640625 -16.894531 2.015625 -18.664062 2.015625 -20.84375 C 2.015625 -22.457031 2.414062 -23.875 3.21875 -25.09375 C 4.03125 -26.320312 5.207031 -27.273438 6.75 -27.953125 C 8.289062 -28.628906 10.132812 -28.96875 12.28125 -28.96875 C 14.488281 -28.96875 16.375 -28.675781 17.9375 -28.09375 C 19.507812 -27.519531 20.835938 -26.632812 21.921875 -25.4375 L 19.125 -21.609375 L 18.640625 -21.609375 C 17.828125 -22.453125 16.898438 -23.082031 15.859375 -23.5 C 14.816406 -23.925781 13.625 -24.140625 12.28125 -24.140625 C 10.738281 -24.140625 9.5625 -23.863281 8.75 -23.3125 C 7.945312 -22.769531 7.546875 -22.019531 7.546875 -21.0625 C 7.546875 -20.15625 7.828125 -19.4375 8.390625 -18.90625 C 8.953125 -18.375 9.929688 -17.957031 11.328125 -17.65625 L 15.078125 -16.875 C 17.847656 -16.289062 19.859375 -15.296875 21.109375 -13.890625 C 22.359375 -12.492188 22.984375 -10.671875 22.984375 -8.421875 C 22.984375 -6.640625 22.597656 -5.085938 21.828125 -3.765625 C 21.066406 -2.441406 19.910156 -1.414062 18.359375 -0.6875 C 16.804688 0.0390625 14.90625 0.40625 12.65625 0.40625 Z M 12.65625 0.40625 "/></g></g></g><g fill="#04045e" fill-opacity="1"><g transform="translate(134.0435, 270.774724)"><g><path d="M 12.5625 0.40625 C 10.476562 0.40625 8.632812 -0.0234375 7.03125 -0.890625 C 5.425781 -1.753906 4.175781 -3.023438 3.28125 -4.703125 C 2.382812 -6.390625 1.9375 -8.410156 1.9375 -10.765625 C 1.9375 -13.128906 2.382812 -15.148438 3.28125 -16.828125 C 4.175781 -18.515625 5.414062 -19.789062 7 -20.65625 C 8.59375 -21.519531 10.414062 -21.953125 12.46875 -21.953125 C 17.007812 -21.953125 19.914062 -20.304688 21.1875 -17.015625 L 17.484375 -14.359375 L 17.078125 -14.359375 C 16.628906 -15.367188 16.050781 -16.117188 15.34375 -16.609375 C 14.632812 -17.109375 13.675781 -17.359375 12.46875 -17.359375 C 10.90625 -17.359375 9.6875 -16.816406 8.8125 -15.734375 C 7.9375 -14.660156 7.5 -13.003906 7.5 -10.765625 C 7.5 -8.546875 7.941406 -6.894531 8.828125 -5.8125 C 9.710938 -4.726562 10.957031 -4.1875 12.5625 -4.1875 C 13.726562 -4.1875 14.71875 -4.5 15.53125 -5.125 C 16.351562 -5.757812 16.9375 -6.671875 17.28125 -7.859375 L 17.703125 -7.890625 L 21.546875 -5.78125 C 20.992188 -3.957031 19.976562 -2.46875 18.5 -1.3125 C 17.03125 -0.164062 15.050781 0.40625 12.5625 0.40625 Z M 12.5625 0.40625 "/></g></g></g><g fill="#04045e" fill-opacity="1"><g transform="translate(156.248366, 270.774724)"><g><path d="M 8.40625 0.40625 C 7.019531 0.40625 5.816406 0.15625 4.796875 -0.34375 C 3.785156 -0.851562 3.003906 -1.597656 2.453125 -2.578125 C 1.910156 -3.566406 1.640625 -4.753906 1.640625 -6.140625 C 1.640625 -7.410156 1.910156 -8.476562 2.453125 -9.34375 C 3.003906 -10.207031 3.851562 -10.914062 5 -11.46875 C 6.144531 -12.03125 7.644531 -12.457031 9.5 -12.75 C 10.78125 -12.957031 11.753906 -13.1875 12.421875 -13.4375 C 13.097656 -13.6875 13.550781 -13.96875 13.78125 -14.28125 C 14.019531 -14.59375 14.140625 -14.988281 14.140625 -15.46875 C 14.140625 -16.15625 13.898438 -16.679688 13.421875 -17.046875 C 12.941406 -17.410156 12.140625 -17.59375 11.015625 -17.59375 C 9.816406 -17.59375 8.675781 -17.328125 7.59375 -16.796875 C 6.519531 -16.265625 5.582031 -15.5625 4.78125 -14.6875 L 4.390625 -14.6875 L 2.125 -18.109375 C 3.21875 -19.316406 4.550781 -20.257812 6.125 -20.9375 C 7.707031 -21.613281 9.429688 -21.953125 11.296875 -21.953125 C 14.140625 -21.953125 16.195312 -21.347656 17.46875 -20.140625 C 18.75 -18.929688 19.390625 -17.210938 19.390625 -14.984375 L 19.390625 -5.625 C 19.390625 -4.664062 19.816406 -4.1875 20.671875 -4.1875 C 20.992188 -4.1875 21.3125 -4.242188 21.625 -4.359375 L 21.890625 -4.28125 L 22.28125 -0.515625 C 21.988281 -0.316406 21.570312 -0.15625 21.03125 -0.03125 C 20.5 0.09375 19.914062 0.15625 19.28125 0.15625 C 17.988281 0.15625 16.976562 -0.0859375 16.25 -0.578125 C 15.53125 -1.078125 15.015625 -1.851562 14.703125 -2.90625 L 14.296875 -2.953125 C 13.242188 -0.710938 11.28125 0.40625 8.40625 0.40625 Z M 10.125 -3.640625 C 11.375 -3.640625 12.367188 -4.054688 13.109375 -4.890625 C 13.859375 -5.734375 14.234375 -6.90625 14.234375 -8.40625 L 14.234375 -10.59375 L 13.875 -10.671875 C 13.539062 -10.410156 13.109375 -10.191406 12.578125 -10.015625 C 12.054688 -9.835938 11.300781 -9.664062 10.3125 -9.5 C 9.144531 -9.300781 8.300781 -8.960938 7.78125 -8.484375 C 7.269531 -8.015625 7.015625 -7.34375 7.015625 -6.46875 C 7.015625 -5.539062 7.285156 -4.835938 7.828125 -4.359375 C 8.378906 -3.878906 9.144531 -3.640625 10.125 -3.640625 Z M 10.125 -3.640625 "/></g></g></g><g fill="#04045e" fill-opacity="1"><g transform="translate(178.960996, 270.774724)"><g><path d="M 8.953125 0.40625 C 7.003906 0.40625 5.519531 -0.113281 4.5 -1.15625 C 3.476562 -2.207031 2.96875 -3.800781 2.96875 -5.9375 L 2.96875 -30.203125 L 8.375 -30.203125 L 8.375 -6.15625 C 8.375 -4.84375 8.921875 -4.1875 10.015625 -4.1875 C 10.328125 -4.1875 10.660156 -4.238281 11.015625 -4.34375 L 11.296875 -4.265625 L 11.78125 -0.09375 C 11.476562 0.0625 11.078125 0.179688 10.578125 0.265625 C 10.085938 0.359375 9.546875 0.40625 8.953125 0.40625 Z M 8.953125 0.40625 "/></g></g></g><g fill="#04045e" fill-opacity="1"><g transform="translate(191.342598, 270.774724)"><g><path d="M 21.296875 -9.546875 L 7.4375 -9.546875 C 7.59375 -7.671875 8.125 -6.304688 9.03125 -5.453125 C 9.945312 -4.609375 11.195312 -4.1875 12.78125 -4.1875 C 14.007812 -4.1875 15.007812 -4.414062 15.78125 -4.875 C 16.550781 -5.332031 17.171875 -6.03125 17.640625 -6.96875 L 18.046875 -6.96875 L 21.640625 -4.671875 C 20.941406 -3.160156 19.878906 -1.9375 18.453125 -1 C 17.035156 -0.0625 15.144531 0.40625 12.78125 0.40625 C 10.550781 0.40625 8.625 -0.015625 7 -0.859375 C 5.382812 -1.703125 4.132812 -2.960938 3.25 -4.640625 C 2.375 -6.316406 1.9375 -8.359375 1.9375 -10.765625 C 1.9375 -13.210938 2.394531 -15.273438 3.3125 -16.953125 C 4.238281 -18.628906 5.488281 -19.878906 7.0625 -20.703125 C 8.644531 -21.535156 10.421875 -21.953125 12.390625 -21.953125 C 15.429688 -21.953125 17.757812 -21.144531 19.375 -19.53125 C 21 -17.914062 21.8125 -15.546875 21.8125 -12.421875 C 21.8125 -11.285156 21.773438 -10.40625 21.703125 -9.78125 Z M 16.640625 -13.046875 C 16.585938 -14.691406 16.207031 -15.882812 15.5 -16.625 C 14.789062 -17.375 13.753906 -17.75 12.390625 -17.75 C 9.648438 -17.75 8.039062 -16.179688 7.5625 -13.046875 Z M 16.640625 -13.046875 "/></g></g></g><g fill="#04045e" fill-opacity="1"><g transform="translate(214.758284, 270.774724)"><g><path d="M 9.859375 0.40625 C 7.441406 0.40625 5.65625 -0.253906 4.5 -1.578125 C 3.351562 -2.898438 2.78125 -4.796875 2.78125 -7.265625 L 2.78125 -21.546875 L 8.1875 -21.546875 L 8.1875 -7.953125 C 8.1875 -6.640625 8.46875 -5.675781 9.03125 -5.0625 C 9.601562 -4.457031 10.476562 -4.15625 11.65625 -4.15625 C 13.15625 -4.15625 14.320312 -4.644531 15.15625 -5.625 C 15.988281 -6.613281 16.40625 -8.164062 16.40625 -10.28125 L 16.40625 -21.546875 L 21.8125 -21.546875 L 21.8125 0 L 16.625 0 L 16.625 -3.171875 L 16.21875 -3.265625 C 15.519531 -2.023438 14.671875 -1.101562 13.671875 -0.5 C 12.679688 0.101562 11.410156 0.40625 9.859375 0.40625 Z M 9.859375 0.40625 "/></g></g></g><g fill="#04045e" fill-opacity="1"><g transform="translate(239.677724, 270.774724)"><g><path d="M 3.109375 8.734375 L 3.109375 -21.546875 L 8.515625 -21.546875 L 8.515625 -18.734375 L 8.921875 -18.65625 C 9.566406 -19.75 10.421875 -20.570312 11.484375 -21.125 C 12.554688 -21.675781 13.804688 -21.953125 15.234375 -21.953125 C 16.960938 -21.953125 18.472656 -21.539062 19.765625 -20.71875 C 21.066406 -19.90625 22.078125 -18.660156 22.796875 -16.984375 C 23.523438 -15.304688 23.890625 -13.234375 23.890625 -10.765625 C 23.890625 -8.304688 23.507812 -6.242188 22.75 -4.578125 C 21.988281 -2.910156 20.929688 -1.660156 19.578125 -0.828125 C 18.222656 -0.00390625 16.660156 0.40625 14.890625 0.40625 C 13.546875 0.40625 12.382812 0.179688 11.40625 -0.265625 C 10.425781 -0.710938 9.597656 -1.410156 8.921875 -2.359375 L 8.515625 -2.28125 L 8.515625 8.734375 Z M 13.375 -4.1875 C 14.988281 -4.1875 16.210938 -4.710938 17.046875 -5.765625 C 17.878906 -6.816406 18.296875 -8.484375 18.296875 -10.765625 C 18.296875 -13.046875 17.878906 -14.710938 17.046875 -15.765625 C 16.210938 -16.828125 14.988281 -17.359375 13.375 -17.359375 C 11.863281 -17.359375 10.664062 -16.8125 9.78125 -15.71875 C 8.894531 -14.625 8.453125 -12.972656 8.453125 -10.765625 C 8.453125 -8.566406 8.894531 -6.921875 9.78125 -5.828125 C 10.664062 -4.734375 11.863281 -4.1875 13.375 -4.1875 Z M 13.375 -4.1875 "/></g></g></g><g fill="#04045e" fill-opacity="1"><g transform="translate(109.514647, 288.099708)"><g><path d="M 8.1875 -10.703125 L 8.1875 -8.9375 L 3.515625 -8.9375 L 3.515625 -6.09375 L 7.75 -6.09375 L 7.75 -4.34375 L 3.515625 -4.34375 L 3.515625 0 L 1.390625 0 L 1.390625 -10.703125 Z M 8.1875 -10.703125 "/></g></g><g transform="translate(118.171873, 288.099708)"><g><path d="M 4.6875 0.15625 C 3.90625 0.15625 3.210938 -0.00390625 2.609375 -0.328125 C 2.015625 -0.660156 1.550781 -1.140625 1.21875 -1.765625 C 0.882812 -2.390625 0.71875 -3.144531 0.71875 -4.03125 C 0.71875 -4.925781 0.882812 -5.6875 1.21875 -6.3125 C 1.550781 -6.945312 2.015625 -7.425781 2.609375 -7.75 C 3.210938 -8.070312 3.90625 -8.234375 4.6875 -8.234375 C 5.476562 -8.234375 6.171875 -8.070312 6.765625 -7.75 C 7.367188 -7.425781 7.835938 -6.945312 8.171875 -6.3125 C 8.503906 -5.6875 8.671875 -4.925781 8.671875 -4.03125 C 8.671875 -3.144531 8.503906 -2.390625 8.171875 -1.765625 C 7.835938 -1.140625 7.367188 -0.660156 6.765625 -0.328125 C 6.171875 -0.00390625 5.476562 0.15625 4.6875 0.15625 Z M 4.6875 -1.5625 C 5.945312 -1.5625 6.578125 -2.382812 6.578125 -4.03125 C 6.578125 -4.882812 6.414062 -5.507812 6.09375 -5.90625 C 5.769531 -6.3125 5.300781 -6.515625 4.6875 -6.515625 C 3.4375 -6.515625 2.8125 -5.6875 2.8125 -4.03125 C 2.8125 -2.382812 3.4375 -1.5625 4.6875 -1.5625 Z M 4.6875 -1.5625 "/></g></g><g transform="translate(127.561521, 288.099708)"><g><path d="M 3.703125 0.15625 C 2.796875 0.15625 2.125 -0.0859375 1.6875 -0.578125 C 1.257812 -1.078125 1.046875 -1.789062 1.046875 -2.71875 L 1.046875 -8.078125 L 3.0625 -8.078125 L 3.0625 -2.984375 C 3.0625 -2.484375 3.164062 -2.117188 3.375 -1.890625 C 3.59375 -1.671875 3.925781 -1.5625 4.375 -1.5625 C 4.9375 -1.5625 5.375 -1.742188 5.6875 -2.109375 C 6 -2.484375 6.15625 -3.066406 6.15625 -3.859375 L 6.15625 -8.078125 L 8.1875 -8.078125 L 8.1875 0 L 6.234375 0 L 6.234375 -1.1875 L 6.078125 -1.21875 C 5.816406 -0.757812 5.5 -0.414062 5.125 -0.1875 C 4.757812 0.0390625 4.285156 0.15625 3.703125 0.15625 Z M 3.703125 0.15625 "/></g></g><g transform="translate(136.907223, 288.099708)"><g><path d="M 1.171875 0 L 1.171875 -8.078125 L 3.109375 -8.078125 L 3.109375 -6.890625 L 3.265625 -6.859375 C 3.765625 -7.773438 4.582031 -8.234375 5.71875 -8.234375 C 6.644531 -8.234375 7.328125 -7.976562 7.765625 -7.46875 C 8.203125 -6.957031 8.421875 -6.21875 8.421875 -5.25 L 8.421875 0 L 6.390625 0 L 6.390625 -5 C 6.390625 -5.539062 6.28125 -5.925781 6.0625 -6.15625 C 5.851562 -6.394531 5.515625 -6.515625 5.046875 -6.515625 C 4.460938 -6.515625 4.003906 -6.328125 3.671875 -5.953125 C 3.347656 -5.578125 3.1875 -4.988281 3.1875 -4.1875 L 3.1875 0 Z M 1.171875 0 "/></g></g><g transform="translate(146.370113, 288.099708)"><g><path d="M 3.984375 0.15625 C 3.347656 0.15625 2.785156 0 2.296875 -0.3125 C 1.804688 -0.625 1.421875 -1.09375 1.140625 -1.71875 C 0.859375 -2.34375 0.71875 -3.113281 0.71875 -4.03125 C 0.71875 -4.957031 0.859375 -5.734375 1.140625 -6.359375 C 1.429688 -6.984375 1.828125 -7.453125 2.328125 -7.765625 C 2.835938 -8.078125 3.425781 -8.234375 4.09375 -8.234375 C 4.59375 -8.234375 5.023438 -8.144531 5.390625 -7.96875 C 5.765625 -7.800781 6.078125 -7.53125 6.328125 -7.15625 L 6.484375 -7.203125 L 6.484375 -11.328125 L 8.515625 -11.328125 L 8.515625 0 L 6.484375 0 L 6.484375 -1.046875 L 6.328125 -1.078125 C 6.109375 -0.691406 5.800781 -0.390625 5.40625 -0.171875 C 5.019531 0.046875 4.546875 0.15625 3.984375 0.15625 Z M 4.65625 -1.5625 C 5.226562 -1.5625 5.675781 -1.765625 6 -2.171875 C 6.332031 -2.585938 6.5 -3.207031 6.5 -4.03125 C 6.5 -4.863281 6.332031 -5.484375 6 -5.890625 C 5.675781 -6.304688 5.226562 -6.515625 4.65625 -6.515625 C 4.050781 -6.515625 3.59375 -6.3125 3.28125 -5.90625 C 2.96875 -5.507812 2.8125 -4.882812 2.8125 -4.03125 C 2.8125 -3.1875 2.96875 -2.5625 3.28125 -2.15625 C 3.59375 -1.757812 4.050781 -1.5625 4.65625 -1.5625 Z M 4.65625 -1.5625 "/></g></g><g transform="translate(156.05273, 288.099708)"><g><path d="M 3.15625 0.15625 C 2.632812 0.15625 2.179688 0.0625 1.796875 -0.125 C 1.421875 -0.320312 1.128906 -0.601562 0.921875 -0.96875 C 0.710938 -1.34375 0.609375 -1.785156 0.609375 -2.296875 C 0.609375 -2.773438 0.710938 -3.175781 0.921875 -3.5 C 1.128906 -3.820312 1.445312 -4.085938 1.875 -4.296875 C 2.300781 -4.503906 2.863281 -4.664062 3.5625 -4.78125 C 4.039062 -4.863281 4.40625 -4.945312 4.65625 -5.03125 C 4.914062 -5.125 5.085938 -5.226562 5.171875 -5.34375 C 5.253906 -5.46875 5.296875 -5.617188 5.296875 -5.796875 C 5.296875 -6.054688 5.207031 -6.253906 5.03125 -6.390625 C 4.851562 -6.523438 4.550781 -6.59375 4.125 -6.59375 C 3.675781 -6.59375 3.25 -6.492188 2.84375 -6.296875 C 2.4375 -6.097656 2.085938 -5.835938 1.796875 -5.515625 L 1.640625 -5.515625 L 0.796875 -6.796875 C 1.203125 -7.242188 1.703125 -7.59375 2.296875 -7.84375 C 2.890625 -8.101562 3.535156 -8.234375 4.234375 -8.234375 C 5.304688 -8.234375 6.078125 -8.003906 6.546875 -7.546875 C 7.023438 -7.097656 7.265625 -6.457031 7.265625 -5.625 L 7.265625 -2.109375 C 7.265625 -1.742188 7.425781 -1.5625 7.75 -1.5625 C 7.875 -1.5625 7.992188 -1.585938 8.109375 -1.640625 L 8.203125 -1.609375 L 8.359375 -0.1875 C 8.242188 -0.113281 8.085938 -0.0507812 7.890625 0 C 7.691406 0.0390625 7.472656 0.0625 7.234375 0.0625 C 6.742188 0.0625 6.363281 -0.03125 6.09375 -0.21875 C 5.820312 -0.40625 5.628906 -0.695312 5.515625 -1.09375 L 5.359375 -1.109375 C 4.960938 -0.265625 4.226562 0.15625 3.15625 0.15625 Z M 3.796875 -1.359375 C 4.265625 -1.359375 4.640625 -1.515625 4.921875 -1.828125 C 5.203125 -2.148438 5.34375 -2.59375 5.34375 -3.15625 L 5.34375 -3.96875 L 5.203125 -4 C 5.078125 -3.90625 4.914062 -3.820312 4.71875 -3.75 C 4.519531 -3.6875 4.238281 -3.625 3.875 -3.5625 C 3.425781 -3.488281 3.101562 -3.363281 2.90625 -3.1875 C 2.71875 -3.007812 2.625 -2.753906 2.625 -2.421875 C 2.625 -2.078125 2.726562 -1.8125 2.9375 -1.625 C 3.144531 -1.445312 3.429688 -1.359375 3.796875 -1.359375 Z M 3.796875 -1.359375 "/></g></g><g transform="translate(164.570796, 288.099708)"><g><path d="M 5.578125 -1.921875 L 6.09375 -0.421875 C 5.875 -0.242188 5.597656 -0.101562 5.265625 0 C 4.941406 0.101562 4.566406 0.15625 4.140625 0.15625 C 3.265625 0.15625 2.597656 -0.0820312 2.140625 -0.5625 C 1.691406 -1.039062 1.46875 -1.734375 1.46875 -2.640625 L 1.46875 -6.46875 L 0.234375 -6.46875 L 0.234375 -8.09375 L 1.46875 -8.09375 L 1.46875 -9.65625 L 3.5 -9.984375 L 3.5 -8.09375 L 5.796875 -8.09375 L 5.796875 -6.46875 L 3.5 -6.46875 L 3.5 -2.78125 C 3.5 -2.382812 3.582031 -2.09375 3.75 -1.90625 C 3.914062 -1.726562 4.15625 -1.640625 4.46875 -1.640625 C 4.832031 -1.640625 5.148438 -1.734375 5.421875 -1.921875 Z M 5.578125 -1.921875 "/></g></g><g transform="translate(170.847651, 288.099708)"><g><path d="M 2.171875 -9.046875 C 1.804688 -9.046875 1.507812 -9.15625 1.28125 -9.375 C 1.050781 -9.601562 0.9375 -9.890625 0.9375 -10.234375 C 0.9375 -10.585938 1.050781 -10.875 1.28125 -11.09375 C 1.507812 -11.3125 1.804688 -11.421875 2.171875 -11.421875 C 2.421875 -11.421875 2.640625 -11.367188 2.828125 -11.265625 C 3.015625 -11.171875 3.160156 -11.03125 3.265625 -10.84375 C 3.367188 -10.664062 3.421875 -10.460938 3.421875 -10.234375 C 3.421875 -10.003906 3.367188 -9.800781 3.265625 -9.625 C 3.160156 -9.445312 3.015625 -9.304688 2.828125 -9.203125 C 2.640625 -9.097656 2.421875 -9.046875 2.171875 -9.046875 Z M 1.171875 0 L 1.171875 -8.078125 L 3.1875 -8.078125 L 3.1875 0 Z M 1.171875 0 "/></g></g><g transform="translate(175.198236, 288.099708)"><g><path d="M 4.6875 0.15625 C 3.90625 0.15625 3.210938 -0.00390625 2.609375 -0.328125 C 2.015625 -0.660156 1.550781 -1.140625 1.21875 -1.765625 C 0.882812 -2.390625 0.71875 -3.144531 0.71875 -4.03125 C 0.71875 -4.925781 0.882812 -5.6875 1.21875 -6.3125 C 1.550781 -6.945312 2.015625 -7.425781 2.609375 -7.75 C 3.210938 -8.070312 3.90625 -8.234375 4.6875 -8.234375 C 5.476562 -8.234375 6.171875 -8.070312 6.765625 -7.75 C 7.367188 -7.425781 7.835938 -6.945312 8.171875 -6.3125 C 8.503906 -5.6875 8.671875 -4.925781 8.671875 -4.03125 C 8.671875 -3.144531 8.503906 -2.390625 8.171875 -1.765625 C 7.835938 -1.140625 7.367188 -0.660156 6.765625 -0.328125 C 6.171875 -0.00390625 5.476562 0.15625 4.6875 0.15625 Z M 4.6875 -1.5625 C 5.945312 -1.5625 6.578125 -2.382812 6.578125 -4.03125 C 6.578125 -4.882812 6.414062 -5.507812 6.09375 -5.90625 C 5.769531 -6.3125 5.300781 -6.515625 4.6875 -6.515625 C 3.4375 -6.515625 2.8125 -5.6875 2.8125 -4.03125 C 2.8125 -2.382812 3.4375 -1.5625 4.6875 -1.5625 Z M 4.6875 -1.5625 "/></g></g><g transform="translate(184.587884, 288.099708)"><g><path d="M 1.171875 0 L 1.171875 -8.078125 L 3.109375 -8.078125 L 3.109375 -6.890625 L 3.265625 -6.859375 C 3.765625 -7.773438 4.582031 -8.234375 5.71875 -8.234375 C 6.644531 -8.234375 7.328125 -7.976562 7.765625 -7.46875 C 8.203125 -6.957031 8.421875 -6.21875 8.421875 -5.25 L 8.421875 0 L 6.390625 0 L 6.390625 -5 C 6.390625 -5.539062 6.28125 -5.925781 6.0625 -6.15625 C 5.851562 -6.394531 5.515625 -6.515625 5.046875 -6.515625 C 4.460938 -6.515625 4.003906 -6.328125 3.671875 -5.953125 C 3.347656 -5.578125 3.1875 -4.988281 3.1875 -4.1875 L 3.1875 0 Z M 1.171875 0 "/></g></g></g></svg>